<svg class="letter-head" xmlns="http://www.w3.org/2000/svg" viewBox="0 0 151 89.4"><defs><style>.underline{fill:none;stroke:#fff;stroke-miterlimit:10;}</style></defs><title>logo_1</title><g data-name="Layer 2"><g data-name="Layer 1"><line class="underline" y1="81.46" x2="151" y2="81.46"/><path d="M134.5,51.81a63.68,63.68,0,0,0-12.58,2.09c-1-6.07-5.27-12.22-13.36-12.22C102,41.68,92.38,51,90,59c0-1.17,0-5.63,0-6.6,2.16-2,22.58-21.49,22.58-38.28C112.63-1,101.05,0,101.05,0,81.87,0,80.57,45,80.87,69.81c-1,2.46-3.42,7.5-7,7.5-7.68,0,3.93-36.19-10.45-36.19-8.68,0-16.25,12.55-18.86,17.43,0-1.05,0-5,0-5.82,2.13-2,22.59-21.85,22.59-38.67C67.2-1,55.63,0,55.63,0,31.29,0,35.73,72.4,35.73,84.15c0,1.28,1.18,5.26,4.29,5.26s4.58-3.55,4.58-5.26c0-6.33,0-9.57,0-21.91C47.29,55.58,55,45.16,60.26,45.16c8.39,0-7,35.68,10.74,35.68,5.79,0,8.85-5.81,9.92-8.35.09,5.37.24,9.53.24,11.67,0,1.28,1.18,5.26,4.29,5.26S90,85.86,90,84.15c0-2.52,0-4.55,0-6.86a10.07,10.07,0,0,0,7.34,3c10.28,0,24.78-9.6,24.78-23.68,0-.46,0-.93-.06-1.4a55.7,55.7,0,0,1,12.5-1.53s1.37,0,1.37-1S134.5,51.81,134.5,51.81ZM57.58,3.2c3.24,0,6.95,3,6.95,11.75,0,16.82-17.73,34-19.88,36C45.18,29.23,49.75,3.2,57.58,3.2ZM108.24,45c7,0,7,6.91,6.93,10.79C105.84,58.64,95.69,63,90,68.58c0-1.44,0-3.06,0-4.88C93,51.43,103,45,108.24,45ZM103,3.2c3.24,0,6.95,3,6.95,11.75,0,16.82-17.73,34-19.88,36C90.61,29.23,95.18,3.2,103,3.2ZM95,76.68c-5.88,0-4.64-3.06-4.52-3.33,2.36-5.07,12.51-12,24.61-16.17C114.4,64.35,103.42,76.68,95,76.68Z"/></g></g></svg>
